<svg xmlns="http://www.w3.org/2000/svg" viewBox="0 0 200 200" width="200" height="200">
  <!-- Occitanie Cross background -->
  <g id="occitanie-cross">
    <!-- Main cross -->
    <rect x="85" y="20" width="30" height="160" fill="#d4af37" opacity="0.3"/>
    <rect x="40" y="85" width="120" height="30" fill="#d4af37" opacity="0.3"/>
    
    <!-- Cross dots/circles at ends -->
    <circle cx="100" cy="35" r="8" fill="#d4af37" opacity="0.5"/>
    <circle cx="100" cy="165" r="8" fill="#d4af37" opacity="0.5"/>
    <circle cx="55" cy="100" r="8" fill="#d4af37" opacity="0.5"/>
    <circle cx="145" cy="100" r="8" fill="#d4af37" opacity="0.5"/>
  </g>
  
  <!-- Rock horns hand -->
  <g id="rock-hand" transform="translate(100, 100)">
    <!-- Palm/base -->
    <ellipse cx="0" cy="10" rx="35" ry="40" fill="#2c3e50" stroke="#1a252f" stroke-width="2"/>
    
    <!-- Index finger (up) -->
    <rect x="-18" y="-35" width="12" height="45" rx="6" fill="#2c3e50" stroke="#1a252f" stroke-width="2"/>
    <circle cx="-12" cy="-35" r="7" fill="#2c3e50" stroke="#1a252f" stroke-width="2"/>
    
    <!-- Pinky finger (up) -->
    <rect x="6" y="-35" width="12" height="45" rx="6" fill="#2c3e50" stroke="#1a252f" stroke-width="2"/>
    <circle cx="12" cy="-35" r="7" fill="#2c3e50" stroke="#1a252f" stroke-width="2"/>
    
    <!-- Middle finger (folded) -->
    <ellipse cx="-3" cy="5" rx="8" ry="12" fill="#2c3e50" stroke="#1a252f" stroke-width="2" transform="rotate(-10 -3 5)"/>
    
    <!-- Ring finger (folded) -->
    <ellipse cx="3" cy="5" rx="8" ry="12" fill="#2c3e50" stroke="#1a252f" stroke-width="2" transform="rotate(10 3 5)"/>
    
    <!-- Thumb -->
    <ellipse cx="-25" cy="0" rx="10" ry="15" fill="#2c3e50" stroke="#1a252f" stroke-width="2" transform="rotate(-30 -25 0)"/>
    
    <!-- Accent lines for energy -->
    <path d="M -30,-45 L -35,-50" stroke="#d4af37" stroke-width="3" stroke-linecap="round" opacity="0.8"/>
    <path d="M 30,-45 L 35,-50" stroke="#d4af37" stroke-width="3" stroke-linecap="round" opacity="0.8"/>
    <path d="M -25,-50 L -28,-55" stroke="#d4af37" stroke-width="2" stroke-linecap="round" opacity="0.6"/>
    <path d="M 25,-50 L 28,-55" stroke="#d4af37" stroke-width="2" stroke-linecap="round" opacity="0.6"/>
  </g>
</svg>